<svg width="402" height="219" viewBox="0 0 402 219" fill="none" xmlns="http://www.w3.org/2000/svg">
<path d="M-16.7387 83.293C-16.7387 40.0123 -16.7387 18.372 -2.64143 7.22183C11.4558 -3.9283 32.5144 1.05598 74.6316 11.0245L359.705 78.4975C379.819 83.2583 389.876 85.6387 395.749 93.064C401.622 100.489 401.622 110.824 401.622 131.494V163.922C401.622 189.595 401.622 202.432 393.647 210.407C385.671 218.383 372.834 218.383 347.161 218.383H37.7225C12.0492 218.383 -0.78739 218.383 -8.76305 210.407C-16.7387 202.432 -16.7387 189.595 -16.7387 163.922V83.293Z" fill="url(#paint0_linear_1322_2134)"/>
<defs>
<linearGradient id="paint0_linear_1322_2134" x1="-16.7387" y1="159.892" x2="416.475" y2="159.892" gradientUnits="userSpaceOnUse">
<stop stop-color="#5936B4"/>
<stop offset="1" stop-color="#362A84"/>
</linearGradient>
</defs>
</svg>
