<svg width="390" height="89" viewBox="0 0 390 89" fill="none" xmlns="http://www.w3.org/2000/svg">
<g filter="url(#filter0_b_61_8085)">
<path d="M0 1C0 1 76.0769 16.9822 127 21C153.339 23.0782 168.554 24 195 24C221.446 24 235.661 23.0782 262 21C312.923 16.9822 390 1 390 1V89H0V1Z" fill="url(#paint0_linear_61_8085)" fill-opacity="0.26"/>
<path d="M0 1L0.0513978 0.755341L-0.25 0.692023V1V89V89.25H0H390H390.25V89V1V0.692844L389.949 0.755207L390 1C389.949 0.755207 389.949 0.755266 389.948 0.755386L389.946 0.755929L389.935 0.758104L389.893 0.766774L389.727 0.801111C389.58 0.831451 389.36 0.876545 389.072 0.935541C388.495 1.05353 387.643 1.22713 386.539 1.44951C384.333 1.89427 381.124 2.53416 377.113 3.31459C369.093 4.87548 357.868 6.99851 345.053 9.24707C319.42 13.7446 287.43 18.7428 261.98 20.7508C235.644 22.8287 221.437 23.75 195 23.75C168.563 23.75 153.355 22.8286 127.02 20.7508C101.571 18.7428 69.8304 13.7446 44.4475 9.24714C31.757 6.99859 20.6577 4.87557 12.731 3.3147C8.76767 2.53427 5.59756 1.89439 3.41838 1.44963C2.32879 1.22725 1.48694 1.05366 0.917538 0.935668C0.632837 0.876674 0.416248 0.831581 0.270862 0.801242L0.10657 0.766906L0.0651988 0.758237L0.054834 0.756062L0.0522476 0.755519C0.0516779 0.755399 0.0513978 0.755341 0 1Z" stroke="#7582F4" stroke-opacity="0.5" stroke-width="0.5"/>
</g>
<!-- <path d="M49.9609 35.499C49.9609 37.3896 51.2393 38.9688 52.9902 39.4092V46.209C52.9902 49.3779 53.5596 51.1074 53.9893 51.1074C54.4297 51.1074 54.9883 49.3887 54.9883 46.209V39.4092C56.7393 38.9795 58.0283 37.3896 58.0283 35.499C58.0283 33.2754 56.2344 31.4492 53.9893 31.4492C51.7549 31.4492 49.9609 33.2754 49.9609 35.499ZM52.8398 35.7246C52.1094 35.7246 51.4648 35.0801 51.4648 34.3281C51.4648 33.5869 52.1094 32.9531 52.8398 32.9531C53.6025 32.9531 54.2256 33.5869 54.2256 34.3281C54.2256 35.0801 53.6025 35.7246 52.8398 35.7246ZM54 55.0391C60.4775 55.0391 64.1943 52.8047 64.1943 50.4414C64.1943 47.6055 59.6934 45.876 56.7393 45.8438V47.4121C58.8125 47.4443 62.0244 48.5723 62.0244 50.1836C62.0244 52.0312 58.6191 53.3418 54 53.3418C49.3594 53.3418 45.9756 52.0527 45.9756 50.1836C45.9756 48.5723 49.1768 47.4443 51.25 47.4121V45.8438C48.2959 45.876 43.7949 47.6055 43.7949 50.4414C43.7949 52.8047 47.5225 55.0391 54 55.0391Z" fill="white"/>
<path d="M326.418 38.5283L327.342 37.8516L328.233 38.5283C328.556 38.7646 328.899 38.5176 328.781 38.1631L328.427 37.0674L329.329 36.3906C329.608 36.1758 329.501 35.7783 329.146 35.7783H328.019L327.643 34.6074C327.546 34.2959 327.127 34.2959 327.03 34.6074L326.654 35.7783H325.516C325.161 35.7783 325.043 36.1758 325.333 36.3906L326.246 37.0674L325.892 38.1631C325.763 38.5176 326.106 38.7539 326.418 38.5283ZM332.434 37.626H345.958C346.441 37.626 346.817 37.25 346.817 36.7666C346.817 36.2725 346.441 35.8965 345.958 35.8965H332.434C331.95 35.8965 331.563 36.2725 331.563 36.7666C331.563 37.25 331.95 37.626 332.434 37.626ZM326.418 45.0059L327.342 44.3291L328.233 45.0059C328.556 45.2529 328.899 44.9951 328.781 44.6406L328.427 43.5449L329.329 42.8682C329.608 42.6533 329.501 42.2666 329.146 42.2666H328.019L327.643 41.085C327.546 40.7842 327.127 40.7842 327.03 41.085L326.654 42.2666H325.516C325.161 42.2666 325.043 42.6533 325.333 42.8682L326.246 43.5449L325.892 44.6406C325.773 44.9951 326.106 45.2314 326.418 45.0059ZM332.434 44.125H345.958C346.441 44.125 346.817 43.7383 346.817 43.2549C346.817 42.7715 346.441 42.3955 345.958 42.3955H332.434C331.95 42.3955 331.563 42.7715 331.563 43.2549C331.563 43.7383 331.95 44.125 332.434 44.125ZM326.418 51.5156L327.342 50.8389L328.233 51.5156C328.556 51.7627 328.899 51.5049 328.781 51.1504L328.427 50.0547L329.329 49.3779C329.608 49.1631 329.501 48.7764 329.146 48.7764H328.019L327.643 47.5947C327.546 47.2939 327.127 47.2832 327.03 47.5947L326.654 48.7764H325.516C325.161 48.7764 325.043 49.1631 325.333 49.3779L326.246 50.0547L325.892 51.1504C325.773 51.5049 326.106 51.7412 326.418 51.5156ZM332.434 50.6133H345.958C346.441 50.6133 346.817 50.2373 346.817 49.7539C346.817 49.2598 346.441 48.8838 345.958 48.8838H332.434C331.95 48.8838 331.563 49.2598 331.563 49.7539C331.563 50.2373 331.95 50.6133 332.434 50.6133Z" fill="white"/> -->
<defs>
<filter id="filter0_b_61_8085" x="-50.5" y="-49.616" width="491" height="189.116" filterUnits="userSpaceOnUse" color-interpolation-filters="sRGB">
<feFlood flood-opacity="0" result="BackgroundImageFix"/>
<feGaussianBlur in="BackgroundImageFix" stdDeviation="25"/>
<feComposite in2="SourceAlpha" operator="in" result="effect1_backgroundBlur_61_8085"/>
<feBlend mode="normal" in="SourceGraphic" in2="effect1_backgroundBlur_61_8085" result="shape"/>
</filter>
<linearGradient id="paint0_linear_61_8085" x1="271.51" y1="1" x2="271.51" y2="89" gradientUnits="userSpaceOnUse">
<stop stop-color="#3A3A6A"/>
<stop offset="1" stop-color="#25244C"/>
</linearGradient>
</defs>
</svg>
